<?xml version="1.0" encoding="iso-8859-1"?>
<!-- Generator: Adobe Illustrator 19.0.0, SVG Export Plug-In . SVG Version: 6.00 Build 0)  -->
<svg version="1.1" id="Capa_1" xmlns="http://www.w3.org/2000/svg" xmlns:xlink="http://www.w3.org/1999/xlink" x="0px" y="0px"
	 viewBox="0 0 464 464" style="enable-background:new 0 0 464 464;" xml:space="preserve">
<g>
	<path style="fill:#E6D2BE;" d="M214.203,435.351c0.284-0.225,3.948-3.179,9.797-9.017V239.999h-16v208h0.015
		C208.018,443.222,210.135,438.499,214.203,435.351z"/>
	<path style="fill:#E6D2BE;" d="M224,37.576c-5.931-5.874-9.603-8.777-9.77-8.905c-4.085-3.15-6.211-7.885-6.215-12.672H208v208h16
		V37.576z"/>
	<path style="fill:#BE7869;" d="M224,426.334c-5.849,5.838-9.512,8.792-9.797,9.017c-4.068,3.148-6.185,7.871-6.188,12.648
		c-0.002,3.416,1.067,6.859,3.313,9.773c3.152,4.086,7.891,6.227,12.684,6.227c3.41,0,6.848-1.086,9.758-3.328
		c3.547-2.736,86.324-68.098,116.949-220.672h-32.705C295.259,345.894,245.211,405.159,224,426.334z"/>
	<path style="fill:#BE7869;" d="M214.23,28.671c0.167,0.128,3.839,3.031,9.77,8.905c21.159,20.956,71.144,79.843,94.015,186.423
		h32.704C320.094,71.426,237.317,6.064,233.77,3.328c-6.996-5.391-17.051-4.094-22.441,2.898c-2.246,2.915-3.316,6.358-3.313,9.773
		C208.019,20.787,210.145,25.521,214.23,28.671z"/>
	<polygon style="fill:#FFEBE1;" points="350.719,223.999 318.015,223.999 224,223.999 208,223.999 112,223.999 120,231.999 
		112,239.999 208,239.999 224,239.999 318.013,239.999 350.719,239.999 368,239.999 368,223.999 	"/>
	<polygon style="fill:#D2C8C3;" points="464,231.999 384,207.999 394.667,223.999 368,223.999 368,239.999 394.667,239.999 
		384,255.999 	"/>
	<polygon style="fill:#BE3C3C;" points="48,207.999 31.767,207.999 55.767,231.999 31.767,255.999 48,255.999 72,231.999 	"/>
	<polygon style="fill:#BE3C3C;" points="16,207.999 0,207.999 24,231.999 0,255.999 16,255.999 40,231.999 	"/>
	<polygon style="fill:#BE3C3C;" points="104.233,231.999 80.233,207.999 63.767,207.999 87.767,231.999 63.767,255.999 
		80.233,255.999 	"/>
	<polygon style="fill:#D2504B;" points="31.767,207.999 16,207.999 40,231.999 16,255.999 31.767,255.999 55.767,231.999 	"/>
	<polygon style="fill:#D2504B;" points="87.767,231.999 63.767,207.999 48,207.999 72,231.999 48,255.999 63.767,255.999 	"/>
	<polygon style="fill:#D2504B;" points="112,223.999 96,207.999 88,207.999 80.233,207.999 104.233,231.999 80.233,255.999 
		88,255.999 96,255.999 112,239.999 120,231.999 	"/>
</g>
<g>
</g>
<g>
</g>
<g>
</g>
<g>
</g>
<g>
</g>
<g>
</g>
<g>
</g>
<g>
</g>
<g>
</g>
<g>
</g>
<g>
</g>
<g>
</g>
<g>
</g>
<g>
</g>
<g>
</g>
</svg>
